<mxfile host="app.diagrams.net" modified="2024-05-26T21:44:21.091Z" agent="Mozilla/5.0 (Windows NT 10.0; Win64; x64) AppleWebKit/537.36 (KHTML, like Gecko) Chrome/123.0.0.0 Safari/537.36 OPR/109.0.0.0" etag="WDX0u_XLD6eEuxfZuJIS" version="24.4.8" type="github">
  <diagram name="Страница — 1" id="zl32AqLXAHDdqQoyT2EN">
    <mxGraphModel dx="4114" dy="1927" grid="1" gridSize="10" guides="1" tooltips="1" connect="1" arrows="1" fold="1" page="1" pageScale="1" pageWidth="827" pageHeight="1169" math="0" shadow="0">
      <root>
        <mxCell id="0" />
        <mxCell id="1" parent="0" />
        <mxCell id="kFYqLt2y3ZUQdu_gal-k-1" value="Jautājumu&lt;br&gt;komentārs" style="rounded=0;whiteSpace=wrap;html=1;" parent="1" vertex="1">
          <mxGeometry x="711" y="-850" width="120" height="60" as="geometry" />
        </mxCell>
        <mxCell id="kFYqLt2y3ZUQdu_gal-k-2" value="Jautājums" style="rounded=0;whiteSpace=wrap;html=1;" parent="1" vertex="1">
          <mxGeometry x="419.5" y="-1020" width="120" height="60" as="geometry" />
        </mxCell>
        <mxCell id="kFYqLt2y3ZUQdu_gal-k-3" value="Fails" style="rounded=0;whiteSpace=wrap;html=1;" parent="1" vertex="1">
          <mxGeometry x="60" y="-650" width="120" height="60" as="geometry" />
        </mxCell>
        <mxCell id="kFYqLt2y3ZUQdu_gal-k-4" value="ShoppingCart" style="rounded=0;whiteSpace=wrap;html=1;" parent="1" vertex="1">
          <mxGeometry x="-705" y="-20" width="120" height="60" as="geometry" />
        </mxCell>
        <mxCell id="kFYqLt2y3ZUQdu_gal-k-5" value="Lietotajs" style="rounded=0;whiteSpace=wrap;html=1;" parent="1" vertex="1">
          <mxGeometry x="420" y="-650" width="120" height="60" as="geometry" />
        </mxCell>
        <mxCell id="kFYqLt2y3ZUQdu_gal-k-6" value="Teksts" style="ellipse;whiteSpace=wrap;html=1;" parent="1" vertex="1">
          <mxGeometry x="931" y="-860" width="120" height="80" as="geometry" />
        </mxCell>
        <mxCell id="kFYqLt2y3ZUQdu_gal-k-7" value="" style="endArrow=none;html=1;rounded=0;exitX=1;exitY=0.5;exitDx=0;exitDy=0;" parent="1" source="kFYqLt2y3ZUQdu_gal-k-1" edge="1">
          <mxGeometry width="50" height="50" relative="1" as="geometry">
            <mxPoint x="811" y="-680" as="sourcePoint" />
            <mxPoint x="931" y="-820" as="targetPoint" />
          </mxGeometry>
        </mxCell>
        <mxCell id="kFYqLt2y3ZUQdu_gal-k-8" value="Lietotājvards" style="ellipse;whiteSpace=wrap;html=1;" parent="1" vertex="1">
          <mxGeometry x="289.5" y="-1160" width="120" height="80" as="geometry" />
        </mxCell>
        <mxCell id="kFYqLt2y3ZUQdu_gal-k-9" value="Nosaukums" style="ellipse;whiteSpace=wrap;html=1;" parent="1" vertex="1">
          <mxGeometry x="419.5" y="-1160" width="120" height="80" as="geometry" />
        </mxCell>
        <mxCell id="kFYqLt2y3ZUQdu_gal-k-10" value="" style="endArrow=none;html=1;rounded=0;entryX=0.5;entryY=1;entryDx=0;entryDy=0;" parent="1" edge="1" target="kFYqLt2y3ZUQdu_gal-k-9">
          <mxGeometry width="50" height="50" relative="1" as="geometry">
            <mxPoint x="480" y="-1020" as="sourcePoint" />
            <mxPoint x="643.5" y="-990" as="targetPoint" />
          </mxGeometry>
        </mxCell>
        <mxCell id="kFYqLt2y3ZUQdu_gal-k-11" value="" style="endArrow=none;html=1;rounded=0;" parent="1" edge="1">
          <mxGeometry width="50" height="50" relative="1" as="geometry">
            <mxPoint x="349" y="-1050.28" as="sourcePoint" />
            <mxPoint x="629.5" y="-1050" as="targetPoint" />
          </mxGeometry>
        </mxCell>
        <mxCell id="kFYqLt2y3ZUQdu_gal-k-13" value="" style="endArrow=none;html=1;rounded=0;exitX=0.5;exitY=0;exitDx=0;exitDy=0;entryX=1;entryY=0.5;entryDx=0;entryDy=0;" parent="1" source="kFYqLt2y3ZUQdu_gal-k-1" target="H1r55hv6cag2Kq7DpMwc-3" edge="1">
          <mxGeometry width="50" height="50" relative="1" as="geometry">
            <mxPoint x="738.8" y="-860" as="sourcePoint" />
            <mxPoint x="739.4999999999998" y="-1010.0000000000001" as="targetPoint" />
            <Array as="points">
              <mxPoint x="770" y="-990" />
            </Array>
          </mxGeometry>
        </mxCell>
        <mxCell id="kFYqLt2y3ZUQdu_gal-k-14" value="" style="endArrow=none;html=1;rounded=0;exitX=0.5;exitY=0;exitDx=0;exitDy=0;entryX=0.5;entryY=1;entryDx=0;entryDy=0;" parent="1" source="VUvAiX2HDTpHdCh1CwL9-2" target="kFYqLt2y3ZUQdu_gal-k-2" edge="1">
          <mxGeometry width="50" height="50" relative="1" as="geometry">
            <mxPoint x="544" y="-965" as="sourcePoint" />
            <mxPoint x="574" y="-885" as="targetPoint" />
          </mxGeometry>
        </mxCell>
        <mxCell id="kFYqLt2y3ZUQdu_gal-k-17" value="GComment" style="rounded=0;whiteSpace=wrap;html=1;" parent="1" vertex="1">
          <mxGeometry x="-705" y="420" width="120" height="60" as="geometry" />
        </mxCell>
        <mxCell id="kFYqLt2y3ZUQdu_gal-k-18" value="Text" style="ellipse;whiteSpace=wrap;html=1;" parent="1" vertex="1">
          <mxGeometry x="-705" y="610" width="120" height="80" as="geometry" />
        </mxCell>
        <mxCell id="kFYqLt2y3ZUQdu_gal-k-19" value="" style="endArrow=none;html=1;rounded=0;exitX=0.5;exitY=1;exitDx=0;exitDy=0;" parent="1" source="kFYqLt2y3ZUQdu_gal-k-17" edge="1">
          <mxGeometry width="50" height="50" relative="1" as="geometry">
            <mxPoint x="-595" y="590" as="sourcePoint" />
            <mxPoint x="-645" y="610" as="targetPoint" />
          </mxGeometry>
        </mxCell>
        <mxCell id="kFYqLt2y3ZUQdu_gal-k-20" value="Vards" style="ellipse;whiteSpace=wrap;html=1;" parent="1" vertex="1">
          <mxGeometry x="419.5" y="-540" width="120" height="80" as="geometry" />
        </mxCell>
        <mxCell id="kFYqLt2y3ZUQdu_gal-k-21" value="e-pasts" style="ellipse;whiteSpace=wrap;html=1;" parent="1" vertex="1">
          <mxGeometry x="539.5" y="-540" width="120" height="80" as="geometry" />
        </mxCell>
        <mxCell id="kFYqLt2y3ZUQdu_gal-k-22" value="lietotājvārds&amp;nbsp;" style="ellipse;whiteSpace=wrap;html=1;" parent="1" vertex="1">
          <mxGeometry x="660" y="-540" width="120" height="80" as="geometry" />
        </mxCell>
        <mxCell id="kFYqLt2y3ZUQdu_gal-k-23" value="parole" style="ellipse;whiteSpace=wrap;html=1;" parent="1" vertex="1">
          <mxGeometry x="789.5" y="-540" width="120" height="80" as="geometry" />
        </mxCell>
        <mxCell id="kFYqLt2y3ZUQdu_gal-k-24" value="administrators" style="ellipse;whiteSpace=wrap;html=1;" parent="1" vertex="1">
          <mxGeometry x="910.5" y="-540" width="120" height="80" as="geometry" />
        </mxCell>
        <mxCell id="kFYqLt2y3ZUQdu_gal-k-25" value="skolotājs" style="ellipse;whiteSpace=wrap;html=1;" parent="1" vertex="1">
          <mxGeometry x="1030.5" y="-540" width="120" height="80" as="geometry" />
        </mxCell>
        <mxCell id="kFYqLt2y3ZUQdu_gal-k-26" value="" style="endArrow=none;html=1;rounded=0;" parent="1" edge="1">
          <mxGeometry width="50" height="50" relative="1" as="geometry">
            <mxPoint x="1100" y="-560" as="sourcePoint" />
            <mxPoint x="360" y="-560" as="targetPoint" />
          </mxGeometry>
        </mxCell>
        <mxCell id="kFYqLt2y3ZUQdu_gal-k-27" value="" style="endArrow=none;html=1;rounded=0;exitX=0.5;exitY=1;exitDx=0;exitDy=0;" parent="1" edge="1" source="kFYqLt2y3ZUQdu_gal-k-5">
          <mxGeometry width="50" height="50" relative="1" as="geometry">
            <mxPoint x="450" y="-530" as="sourcePoint" />
            <mxPoint x="480" y="-540" as="targetPoint" />
          </mxGeometry>
        </mxCell>
        <mxCell id="kFYqLt2y3ZUQdu_gal-k-28" value="" style="endArrow=none;html=1;rounded=0;entryX=0.5;entryY=0;entryDx=0;entryDy=0;" parent="1" edge="1" target="kFYqLt2y3ZUQdu_gal-k-21">
          <mxGeometry width="50" height="50" relative="1" as="geometry">
            <mxPoint x="600" y="-560" as="sourcePoint" />
            <mxPoint x="784.5" y="-510.24" as="targetPoint" />
          </mxGeometry>
        </mxCell>
        <mxCell id="kFYqLt2y3ZUQdu_gal-k-29" value="" style="endArrow=none;html=1;rounded=0;entryX=0;entryY=0.5;entryDx=0;entryDy=0;" parent="1" edge="1">
          <mxGeometry width="50" height="50" relative="1" as="geometry">
            <mxPoint x="480" y="-330.5" as="sourcePoint" />
            <mxPoint x="540" y="-330.5" as="targetPoint" />
          </mxGeometry>
        </mxCell>
        <mxCell id="kFYqLt2y3ZUQdu_gal-k-30" value="" style="endArrow=none;html=1;rounded=0;entryX=0;entryY=0.5;entryDx=0;entryDy=0;" parent="1" edge="1">
          <mxGeometry width="50" height="50" relative="1" as="geometry">
            <mxPoint x="480" y="-240.5" as="sourcePoint" />
            <mxPoint x="540" y="-240.5" as="targetPoint" />
          </mxGeometry>
        </mxCell>
        <mxCell id="kFYqLt2y3ZUQdu_gal-k-31" value="" style="endArrow=none;html=1;rounded=0;entryX=0;entryY=0.5;entryDx=0;entryDy=0;" parent="1" edge="1">
          <mxGeometry width="50" height="50" relative="1" as="geometry">
            <mxPoint x="480" y="-150.5" as="sourcePoint" />
            <mxPoint x="540" y="-150.5" as="targetPoint" />
          </mxGeometry>
        </mxCell>
        <mxCell id="kFYqLt2y3ZUQdu_gal-k-32" value="" style="endArrow=none;html=1;rounded=0;entryX=0;entryY=0.5;entryDx=0;entryDy=0;" parent="1" edge="1">
          <mxGeometry width="50" height="50" relative="1" as="geometry">
            <mxPoint x="480" y="-60.5" as="sourcePoint" />
            <mxPoint x="540" y="-60.5" as="targetPoint" />
          </mxGeometry>
        </mxCell>
        <mxCell id="kFYqLt2y3ZUQdu_gal-k-34" value="" style="endArrow=none;html=1;rounded=0;" parent="1" target="kFYqLt2y3ZUQdu_gal-k-17" edge="1">
          <mxGeometry width="50" height="50" relative="1" as="geometry">
            <mxPoint x="-645" y="270" as="sourcePoint" />
            <mxPoint x="-484" y="340" as="targetPoint" />
          </mxGeometry>
        </mxCell>
        <mxCell id="kFYqLt2y3ZUQdu_gal-k-35" value="Nosaukums" style="ellipse;whiteSpace=wrap;html=1;" parent="1" vertex="1">
          <mxGeometry x="60" y="-540" width="120" height="80" as="geometry" />
        </mxCell>
        <mxCell id="kFYqLt2y3ZUQdu_gal-k-36" value="Autors" style="ellipse;whiteSpace=wrap;html=1;" parent="1" vertex="1">
          <mxGeometry x="180" y="-540" width="105" height="70" as="geometry" />
        </mxCell>
        <mxCell id="kFYqLt2y3ZUQdu_gal-k-37" value="Apraksts" style="ellipse;whiteSpace=wrap;html=1;" parent="1" vertex="1">
          <mxGeometry x="-60" y="-540" width="120" height="80" as="geometry" />
        </mxCell>
        <mxCell id="kFYqLt2y3ZUQdu_gal-k-40" value="" style="endArrow=none;html=1;rounded=0;" parent="1" edge="1">
          <mxGeometry width="50" height="50" relative="1" as="geometry">
            <mxPoint x="-120" y="-560" as="sourcePoint" />
            <mxPoint x="240" y="-560" as="targetPoint" />
          </mxGeometry>
        </mxCell>
        <mxCell id="kFYqLt2y3ZUQdu_gal-k-41" value="" style="endArrow=none;html=1;rounded=0;exitX=0.5;exitY=1;exitDx=0;exitDy=0;" parent="1" edge="1" source="kFYqLt2y3ZUQdu_gal-k-3">
          <mxGeometry width="50" height="50" relative="1" as="geometry">
            <mxPoint x="120" y="-510.5" as="sourcePoint" />
            <mxPoint x="120" y="-540" as="targetPoint" />
          </mxGeometry>
        </mxCell>
        <mxCell id="kFYqLt2y3ZUQdu_gal-k-42" value="" style="endArrow=none;html=1;rounded=0;entryX=0.5;entryY=0;entryDx=0;entryDy=0;" parent="1" edge="1" target="kFYqLt2y3ZUQdu_gal-k-37">
          <mxGeometry width="50" height="50" relative="1" as="geometry">
            <mxPoint y="-560" as="sourcePoint" />
            <mxPoint x="90" y="-450" as="targetPoint" />
          </mxGeometry>
        </mxCell>
        <mxCell id="kFYqLt2y3ZUQdu_gal-k-43" value="" style="endArrow=none;html=1;rounded=0;entryX=0;entryY=0.5;entryDx=0;entryDy=0;" parent="1" edge="1">
          <mxGeometry width="50" height="50" relative="1" as="geometry">
            <mxPoint x="120" y="-330.5" as="sourcePoint" />
            <mxPoint x="180" y="-330.5" as="targetPoint" />
          </mxGeometry>
        </mxCell>
        <mxCell id="kFYqLt2y3ZUQdu_gal-k-47" value="Category" style="rounded=0;whiteSpace=wrap;html=1;" parent="1" vertex="1">
          <mxGeometry x="-1070" y="-70" width="120" height="60" as="geometry" />
        </mxCell>
        <mxCell id="kFYqLt2y3ZUQdu_gal-k-48" value="AgeRate" style="rounded=0;whiteSpace=wrap;html=1;" parent="1" vertex="1">
          <mxGeometry x="-1500" y="220" width="120" height="60" as="geometry" />
        </mxCell>
        <mxCell id="kFYqLt2y3ZUQdu_gal-k-49" value="Specification" style="rounded=0;whiteSpace=wrap;html=1;" parent="1" vertex="1">
          <mxGeometry x="-1500" y="420" width="120" height="60" as="geometry" />
        </mxCell>
        <mxCell id="kFYqLt2y3ZUQdu_gal-k-50" value="OS" style="ellipse;whiteSpace=wrap;html=1;" parent="1" vertex="1">
          <mxGeometry x="-1390" y="510" width="120" height="80" as="geometry" />
        </mxCell>
        <mxCell id="kFYqLt2y3ZUQdu_gal-k-51" value="CPU" style="ellipse;whiteSpace=wrap;html=1;" parent="1" vertex="1">
          <mxGeometry x="-1390" y="600" width="120" height="80" as="geometry" />
        </mxCell>
        <mxCell id="kFYqLt2y3ZUQdu_gal-k-52" value="RAM" style="ellipse;whiteSpace=wrap;html=1;" parent="1" vertex="1">
          <mxGeometry x="-1390" y="690" width="120" height="80" as="geometry" />
        </mxCell>
        <mxCell id="kFYqLt2y3ZUQdu_gal-k-53" value="GPU" style="ellipse;whiteSpace=wrap;html=1;" parent="1" vertex="1">
          <mxGeometry x="-1390" y="780" width="120" height="80" as="geometry" />
        </mxCell>
        <mxCell id="kFYqLt2y3ZUQdu_gal-k-54" value="DirectX" style="ellipse;whiteSpace=wrap;html=1;" parent="1" vertex="1">
          <mxGeometry x="-1390" y="870" width="120" height="80" as="geometry" />
        </mxCell>
        <mxCell id="kFYqLt2y3ZUQdu_gal-k-55" value="" style="endArrow=none;html=1;rounded=0;" parent="1" edge="1">
          <mxGeometry width="50" height="50" relative="1" as="geometry">
            <mxPoint x="-1450" y="1000" as="sourcePoint" />
            <mxPoint x="-1450" y="480" as="targetPoint" />
          </mxGeometry>
        </mxCell>
        <mxCell id="kFYqLt2y3ZUQdu_gal-k-56" value="" style="endArrow=none;html=1;rounded=0;entryX=0;entryY=0.5;entryDx=0;entryDy=0;" parent="1" edge="1">
          <mxGeometry width="50" height="50" relative="1" as="geometry">
            <mxPoint x="-1450" y="549.5" as="sourcePoint" />
            <mxPoint x="-1390" y="549.5" as="targetPoint" />
          </mxGeometry>
        </mxCell>
        <mxCell id="kFYqLt2y3ZUQdu_gal-k-57" value="" style="endArrow=none;html=1;rounded=0;entryX=0;entryY=0.5;entryDx=0;entryDy=0;" parent="1" edge="1">
          <mxGeometry width="50" height="50" relative="1" as="geometry">
            <mxPoint x="-1450" y="639.5" as="sourcePoint" />
            <mxPoint x="-1390" y="639.5" as="targetPoint" />
          </mxGeometry>
        </mxCell>
        <mxCell id="kFYqLt2y3ZUQdu_gal-k-58" value="" style="endArrow=none;html=1;rounded=0;entryX=0;entryY=0.5;entryDx=0;entryDy=0;" parent="1" edge="1">
          <mxGeometry width="50" height="50" relative="1" as="geometry">
            <mxPoint x="-1450" y="729.5" as="sourcePoint" />
            <mxPoint x="-1390" y="729.5" as="targetPoint" />
          </mxGeometry>
        </mxCell>
        <mxCell id="kFYqLt2y3ZUQdu_gal-k-59" value="" style="endArrow=none;html=1;rounded=0;entryX=0;entryY=0.5;entryDx=0;entryDy=0;" parent="1" edge="1">
          <mxGeometry width="50" height="50" relative="1" as="geometry">
            <mxPoint x="-1450" y="819.5" as="sourcePoint" />
            <mxPoint x="-1390" y="819.5" as="targetPoint" />
          </mxGeometry>
        </mxCell>
        <mxCell id="kFYqLt2y3ZUQdu_gal-k-60" value="" style="endArrow=none;html=1;rounded=0;entryX=0;entryY=0.5;entryDx=0;entryDy=0;" parent="1" edge="1">
          <mxGeometry width="50" height="50" relative="1" as="geometry">
            <mxPoint x="-1450" y="909.5" as="sourcePoint" />
            <mxPoint x="-1390" y="910" as="targetPoint" />
          </mxGeometry>
        </mxCell>
        <mxCell id="kFYqLt2y3ZUQdu_gal-k-61" value="DriveSpace" style="ellipse;whiteSpace=wrap;html=1;" parent="1" vertex="1">
          <mxGeometry x="-1390" y="960" width="120" height="80" as="geometry" />
        </mxCell>
        <mxCell id="kFYqLt2y3ZUQdu_gal-k-62" value="" style="endArrow=none;html=1;rounded=0;entryX=0;entryY=0.5;entryDx=0;entryDy=0;" parent="1" edge="1">
          <mxGeometry width="50" height="50" relative="1" as="geometry">
            <mxPoint x="-1450" y="999.5" as="sourcePoint" />
            <mxPoint x="-1390" y="1000" as="targetPoint" />
          </mxGeometry>
        </mxCell>
        <mxCell id="kFYqLt2y3ZUQdu_gal-k-64" value="Age" style="ellipse;whiteSpace=wrap;html=1;" parent="1" vertex="1">
          <mxGeometry x="-1740" y="210" width="120" height="80" as="geometry" />
        </mxCell>
        <mxCell id="kFYqLt2y3ZUQdu_gal-k-65" value="" style="endArrow=none;html=1;rounded=0;exitX=0;exitY=0.5;exitDx=0;exitDy=0;" parent="1" source="kFYqLt2y3ZUQdu_gal-k-48" edge="1">
          <mxGeometry width="50" height="50" relative="1" as="geometry">
            <mxPoint x="-1840" y="250" as="sourcePoint" />
            <mxPoint x="-1620" y="250" as="targetPoint" />
          </mxGeometry>
        </mxCell>
        <mxCell id="kFYqLt2y3ZUQdu_gal-k-67" value="" style="endArrow=none;html=1;rounded=0;" parent="1" source="kFYqLt2y3ZUQdu_gal-k-48" edge="1">
          <mxGeometry width="50" height="50" relative="1" as="geometry">
            <mxPoint x="-1160" y="250" as="sourcePoint" />
            <mxPoint x="-1010" y="250" as="targetPoint" />
          </mxGeometry>
        </mxCell>
        <mxCell id="kFYqLt2y3ZUQdu_gal-k-68" value="Have" style="rhombus;whiteSpace=wrap;html=1;" parent="1" vertex="1">
          <mxGeometry x="-1085" y="50" width="150" height="60" as="geometry" />
        </mxCell>
        <mxCell id="kFYqLt2y3ZUQdu_gal-k-69" value="" style="endArrow=none;html=1;rounded=0;entryX=0.5;entryY=1;entryDx=0;entryDy=0;exitX=0.5;exitY=0;exitDx=0;exitDy=0;" parent="1" source="kFYqLt2y3ZUQdu_gal-k-68" target="kFYqLt2y3ZUQdu_gal-k-47" edge="1">
          <mxGeometry width="50" height="50" relative="1" as="geometry">
            <mxPoint x="-925" y="170" as="sourcePoint" />
            <mxPoint x="-855" y="170" as="targetPoint" />
          </mxGeometry>
        </mxCell>
        <mxCell id="kFYqLt2y3ZUQdu_gal-k-70" value="Name" style="ellipse;whiteSpace=wrap;html=1;" parent="1" vertex="1">
          <mxGeometry x="-1070" y="-230" width="120" height="80" as="geometry" />
        </mxCell>
        <mxCell id="kFYqLt2y3ZUQdu_gal-k-71" value="" style="endArrow=none;html=1;rounded=0;entryX=0.5;entryY=1;entryDx=0;entryDy=0;exitX=0.5;exitY=0;exitDx=0;exitDy=0;" parent="1" source="kFYqLt2y3ZUQdu_gal-k-47" edge="1">
          <mxGeometry width="50" height="50" relative="1" as="geometry">
            <mxPoint x="-970" y="-80" as="sourcePoint" />
            <mxPoint x="-1009.9999999999995" y="-150" as="targetPoint" />
          </mxGeometry>
        </mxCell>
        <mxCell id="kFYqLt2y3ZUQdu_gal-k-72" value="TotaPrice" style="ellipse;whiteSpace=wrap;html=1;" parent="1" vertex="1">
          <mxGeometry x="-705" y="-200" width="120" height="80" as="geometry" />
        </mxCell>
        <mxCell id="kFYqLt2y3ZUQdu_gal-k-73" value="1" style="text;html=1;align=center;verticalAlign=middle;resizable=0;points=[];autosize=1;strokeColor=none;fillColor=none;" parent="1" vertex="1">
          <mxGeometry x="479.5" y="-860" width="30" height="30" as="geometry" />
        </mxCell>
        <mxCell id="kFYqLt2y3ZUQdu_gal-k-74" value="M" style="text;html=1;align=center;verticalAlign=middle;resizable=0;points=[];autosize=1;strokeColor=none;fillColor=none;" parent="1" vertex="1">
          <mxGeometry x="479.5" y="-930" width="30" height="30" as="geometry" />
        </mxCell>
        <mxCell id="kFYqLt2y3ZUQdu_gal-k-75" value="M" style="text;html=1;align=center;verticalAlign=middle;resizable=0;points=[];autosize=1;strokeColor=none;fillColor=none;" parent="1" vertex="1">
          <mxGeometry x="150" y="-1040" width="30" height="30" as="geometry" />
        </mxCell>
        <mxCell id="kFYqLt2y3ZUQdu_gal-k-77" value="M" style="text;html=1;align=center;verticalAlign=middle;resizable=0;points=[];autosize=1;strokeColor=none;fillColor=none;" parent="1" vertex="1">
          <mxGeometry x="780" y="-670" width="30" height="30" as="geometry" />
        </mxCell>
        <mxCell id="kFYqLt2y3ZUQdu_gal-k-78" value="1" style="text;html=1;align=center;verticalAlign=middle;resizable=0;points=[];autosize=1;strokeColor=none;fillColor=none;" parent="1" vertex="1">
          <mxGeometry x="-470" y="240" width="30" height="30" as="geometry" />
        </mxCell>
        <mxCell id="kFYqLt2y3ZUQdu_gal-k-79" value="M" style="text;html=1;align=center;verticalAlign=middle;resizable=0;points=[];autosize=1;strokeColor=none;fillColor=none;" parent="1" vertex="1">
          <mxGeometry x="-640" y="390" width="30" height="30" as="geometry" />
        </mxCell>
        <mxCell id="kFYqLt2y3ZUQdu_gal-k-80" value="M" style="text;html=1;align=center;verticalAlign=middle;resizable=0;points=[];autosize=1;strokeColor=none;fillColor=none;" parent="1" vertex="1">
          <mxGeometry x="-735" y="420" width="30" height="30" as="geometry" />
        </mxCell>
        <mxCell id="kFYqLt2y3ZUQdu_gal-k-81" value="1" style="text;html=1;align=center;verticalAlign=middle;resizable=0;points=[];autosize=1;strokeColor=none;fillColor=none;" parent="1" vertex="1">
          <mxGeometry x="350" y="-660" width="30" height="30" as="geometry" />
        </mxCell>
        <mxCell id="kFYqLt2y3ZUQdu_gal-k-83" value="1" style="text;html=1;align=center;verticalAlign=middle;resizable=0;points=[];autosize=1;strokeColor=none;fillColor=none;" parent="1" vertex="1">
          <mxGeometry x="-1380" y="420" width="30" height="30" as="geometry" />
        </mxCell>
        <mxCell id="kFYqLt2y3ZUQdu_gal-k-84" value="M" style="text;html=1;align=center;verticalAlign=middle;resizable=0;points=[];autosize=1;strokeColor=none;fillColor=none;" parent="1" vertex="1">
          <mxGeometry x="-1380" y="220" width="30" height="30" as="geometry" />
        </mxCell>
        <mxCell id="kFYqLt2y3ZUQdu_gal-k-85" value="1" style="text;html=1;align=center;verticalAlign=middle;resizable=0;points=[];autosize=1;strokeColor=none;fillColor=none;" parent="1" vertex="1">
          <mxGeometry x="-1040" y="220" width="30" height="30" as="geometry" />
        </mxCell>
        <mxCell id="kFYqLt2y3ZUQdu_gal-k-86" value="M" style="text;html=1;align=center;verticalAlign=middle;resizable=0;points=[];autosize=1;strokeColor=none;fillColor=none;" parent="1" vertex="1">
          <mxGeometry x="-1010" y="110" width="30" height="30" as="geometry" />
        </mxCell>
        <mxCell id="kFYqLt2y3ZUQdu_gal-k-87" value="M" style="text;html=1;align=center;verticalAlign=middle;resizable=0;points=[];autosize=1;strokeColor=none;fillColor=none;" parent="1" vertex="1">
          <mxGeometry x="-1010" y="-10" width="30" height="30" as="geometry" />
        </mxCell>
        <mxCell id="kFYqLt2y3ZUQdu_gal-k-88" value="Include" style="rhombus;whiteSpace=wrap;html=1;" parent="1" vertex="1">
          <mxGeometry x="-885" y="120" width="150" height="60" as="geometry" />
        </mxCell>
        <mxCell id="kFYqLt2y3ZUQdu_gal-k-89" value="" style="endArrow=none;html=1;rounded=0;entryX=0.5;entryY=1;entryDx=0;entryDy=0;exitX=0.5;exitY=0;exitDx=0;exitDy=0;" parent="1" source="kFYqLt2y3ZUQdu_gal-k-4" edge="1">
          <mxGeometry width="50" height="50" relative="1" as="geometry">
            <mxPoint x="-586" y="-50" as="sourcePoint" />
            <mxPoint x="-645" y="-120" as="targetPoint" />
          </mxGeometry>
        </mxCell>
        <mxCell id="kFYqLt2y3ZUQdu_gal-k-90" value="" style="endArrow=none;html=1;rounded=0;exitX=1;exitY=0.5;exitDx=0;exitDy=0;" parent="1" source="kFYqLt2y3ZUQdu_gal-k-4" edge="1">
          <mxGeometry width="50" height="50" relative="1" as="geometry">
            <mxPoint x="-370" y="20" as="sourcePoint" />
            <mxPoint x="-440" y="130" as="targetPoint" />
            <Array as="points">
              <mxPoint x="-440" y="10" />
            </Array>
          </mxGeometry>
        </mxCell>
        <mxCell id="kFYqLt2y3ZUQdu_gal-k-92" value="" style="endArrow=none;html=1;rounded=0;entryX=0.5;entryY=1;entryDx=0;entryDy=0;" parent="1" target="kFYqLt2y3ZUQdu_gal-k-88" edge="1">
          <mxGeometry width="50" height="50" relative="1" as="geometry">
            <mxPoint x="-810" y="310" as="sourcePoint" />
            <mxPoint x="-760" y="160" as="targetPoint" />
          </mxGeometry>
        </mxCell>
        <mxCell id="kFYqLt2y3ZUQdu_gal-k-93" value="M" style="text;html=1;align=center;verticalAlign=middle;resizable=0;points=[];autosize=1;strokeColor=none;fillColor=none;" parent="1" vertex="1">
          <mxGeometry x="-810" y="180" width="30" height="30" as="geometry" />
        </mxCell>
        <mxCell id="kFYqLt2y3ZUQdu_gal-k-94" value="" style="endArrow=none;html=1;rounded=0;exitX=0;exitY=0.5;exitDx=0;exitDy=0;entryX=0.5;entryY=0;entryDx=0;entryDy=0;" parent="1" source="kFYqLt2y3ZUQdu_gal-k-4" target="kFYqLt2y3ZUQdu_gal-k-88" edge="1">
          <mxGeometry width="50" height="50" relative="1" as="geometry">
            <mxPoint x="-780" y="9" as="sourcePoint" />
            <mxPoint x="-910" y="9" as="targetPoint" />
            <Array as="points">
              <mxPoint x="-810" y="10" />
            </Array>
          </mxGeometry>
        </mxCell>
        <mxCell id="kFYqLt2y3ZUQdu_gal-k-95" value="M" style="text;html=1;align=center;verticalAlign=middle;resizable=0;points=[];autosize=1;strokeColor=none;fillColor=none;" parent="1" vertex="1">
          <mxGeometry x="-810" y="90" width="30" height="30" as="geometry" />
        </mxCell>
        <mxCell id="kFYqLt2y3ZUQdu_gal-k-96" value="" style="endArrow=none;html=1;rounded=0;entryX=0;entryY=0.5;entryDx=0;entryDy=0;exitX=1;exitY=0.5;exitDx=0;exitDy=0;" parent="1" source="kFYqLt2y3ZUQdu_gal-k-99" target="kFYqLt2y3ZUQdu_gal-k-68" edge="1">
          <mxGeometry width="50" height="50" relative="1" as="geometry">
            <mxPoint x="-1220" y="80" as="sourcePoint" />
            <mxPoint x="-1130" y="79.5" as="targetPoint" />
          </mxGeometry>
        </mxCell>
        <mxCell id="kFYqLt2y3ZUQdu_gal-k-97" value="" style="endArrow=none;html=1;rounded=0;exitX=1;exitY=0.5;exitDx=0;exitDy=0;entryX=0;entryY=0.5;entryDx=0;entryDy=0;" parent="1" source="kFYqLt2y3ZUQdu_gal-k-88" target="kFYqLt2y3ZUQdu_gal-k-98" edge="1">
          <mxGeometry width="50" height="50" relative="1" as="geometry">
            <mxPoint x="-712.5" y="149.5" as="sourcePoint" />
            <mxPoint x="-650" y="150" as="targetPoint" />
          </mxGeometry>
        </mxCell>
        <mxCell id="kFYqLt2y3ZUQdu_gal-k-98" value="GamesKeyCount" style="ellipse;whiteSpace=wrap;html=1;" parent="1" vertex="1">
          <mxGeometry x="-650" y="110" width="120" height="80" as="geometry" />
        </mxCell>
        <mxCell id="kFYqLt2y3ZUQdu_gal-k-99" value="Stars" style="ellipse;whiteSpace=wrap;html=1;" parent="1" vertex="1">
          <mxGeometry x="-1350" y="40" width="120" height="80" as="geometry" />
        </mxCell>
        <mxCell id="kFYqLt2y3ZUQdu_gal-k-100" value="1" style="text;html=1;align=center;verticalAlign=middle;resizable=0;points=[];autosize=1;strokeColor=none;fillColor=none;" parent="1" vertex="1">
          <mxGeometry x="686" y="-650" width="30" height="30" as="geometry" />
        </mxCell>
        <mxCell id="kFYqLt2y3ZUQdu_gal-k-101" value="1" style="text;html=1;align=center;verticalAlign=middle;resizable=0;points=[];autosize=1;strokeColor=none;fillColor=none;" parent="1" vertex="1">
          <mxGeometry x="-585" y="-20" width="30" height="30" as="geometry" />
        </mxCell>
        <mxCell id="kFYqLt2y3ZUQdu_gal-k-103" value="" style="endArrow=none;html=1;rounded=0;entryX=0;entryY=0.5;entryDx=0;entryDy=0;exitX=1;exitY=0.5;exitDx=0;exitDy=0;" parent="1" source="kFYqLt2y3ZUQdu_gal-k-106" target="kFYqLt2y3ZUQdu_gal-k-5" edge="1">
          <mxGeometry width="50" height="50" relative="1" as="geometry">
            <mxPoint x="350" y="-620" as="sourcePoint" />
            <mxPoint x="540" y="-630" as="targetPoint" />
          </mxGeometry>
        </mxCell>
        <mxCell id="kFYqLt2y3ZUQdu_gal-k-106" value="Lejuplāde" style="rhombus;whiteSpace=wrap;html=1;" parent="1" vertex="1">
          <mxGeometry x="240" y="-650" width="150" height="60" as="geometry" />
        </mxCell>
        <mxCell id="kFYqLt2y3ZUQdu_gal-k-107" value="M" style="text;html=1;align=center;verticalAlign=middle;resizable=0;points=[];autosize=1;strokeColor=none;fillColor=none;" parent="1" vertex="1">
          <mxGeometry x="120" y="-770" width="30" height="30" as="geometry" />
        </mxCell>
        <mxCell id="kFYqLt2y3ZUQdu_gal-k-108" value="" style="endArrow=none;html=1;rounded=0;exitX=1;exitY=0.5;exitDx=0;exitDy=0;" parent="1" source="kFYqLt2y3ZUQdu_gal-k-3" target="kFYqLt2y3ZUQdu_gal-k-106" edge="1">
          <mxGeometry width="50" height="50" relative="1" as="geometry">
            <mxPoint x="340" y="-560.95" as="sourcePoint" />
            <mxPoint x="240" y="-620" as="targetPoint" />
          </mxGeometry>
        </mxCell>
        <mxCell id="kFYqLt2y3ZUQdu_gal-k-109" value="Kategorijas" style="rounded=0;whiteSpace=wrap;html=1;" parent="1" vertex="1">
          <mxGeometry x="60" y="-850" width="120" height="60" as="geometry" />
        </mxCell>
        <mxCell id="kFYqLt2y3ZUQdu_gal-k-111" value="Nosaukums" style="ellipse;whiteSpace=wrap;html=1;" parent="1" vertex="1">
          <mxGeometry x="-160" y="-860" width="120" height="80" as="geometry" />
        </mxCell>
        <mxCell id="kFYqLt2y3ZUQdu_gal-k-112" value="Apraksts" style="ellipse;whiteSpace=wrap;html=1;" parent="1" vertex="1">
          <mxGeometry x="-160" y="-770" width="120" height="80" as="geometry" />
        </mxCell>
        <mxCell id="kFYqLt2y3ZUQdu_gal-k-113" value="" style="endArrow=none;html=1;rounded=0;entryX=0;entryY=0.5;entryDx=0;entryDy=0;" parent="1" target="kFYqLt2y3ZUQdu_gal-k-109" edge="1">
          <mxGeometry width="50" height="50" relative="1" as="geometry">
            <mxPoint x="20" y="-730" as="sourcePoint" />
            <mxPoint x="120" y="-790" as="targetPoint" />
            <Array as="points">
              <mxPoint x="20" y="-820" />
            </Array>
          </mxGeometry>
        </mxCell>
        <mxCell id="kFYqLt2y3ZUQdu_gal-k-115" value="" style="endArrow=none;html=1;rounded=0;" parent="1" edge="1">
          <mxGeometry width="50" height="50" relative="1" as="geometry">
            <mxPoint x="-40" y="-820" as="sourcePoint" />
            <mxPoint x="20" y="-820" as="targetPoint" />
          </mxGeometry>
        </mxCell>
        <mxCell id="kFYqLt2y3ZUQdu_gal-k-116" value="" style="endArrow=none;html=1;rounded=0;entryX=1;entryY=0.5;entryDx=0;entryDy=0;" parent="1" target="kFYqLt2y3ZUQdu_gal-k-112" edge="1">
          <mxGeometry width="50" height="50" relative="1" as="geometry">
            <mxPoint x="20" y="-730" as="sourcePoint" />
            <mxPoint x="-10" y="-580" as="targetPoint" />
          </mxGeometry>
        </mxCell>
        <mxCell id="kFYqLt2y3ZUQdu_gal-k-132" value="" style="endArrow=none;html=1;rounded=0;entryX=0.47;entryY=0.046;entryDx=0;entryDy=0;exitX=0.47;exitY=1.009;exitDx=0;exitDy=0;exitPerimeter=0;entryPerimeter=0;" parent="1" source="H1r55hv6cag2Kq7DpMwc-1" target="kFYqLt2y3ZUQdu_gal-k-3" edge="1">
          <mxGeometry width="50" height="50" relative="1" as="geometry">
            <mxPoint x="160" y="-710" as="sourcePoint" />
            <mxPoint x="215" y="-710" as="targetPoint" />
          </mxGeometry>
        </mxCell>
        <mxCell id="kFYqLt2y3ZUQdu_gal-k-133" value="M" style="text;html=1;align=center;verticalAlign=middle;resizable=0;points=[];autosize=1;strokeColor=none;fillColor=none;" parent="1" vertex="1">
          <mxGeometry x="250" y="-660" width="30" height="30" as="geometry" />
        </mxCell>
        <mxCell id="TipFDsnjB_aHPclZi5g--1" value="Teksts" style="ellipse;whiteSpace=wrap;html=1;" parent="1" vertex="1">
          <mxGeometry x="569.5" y="-1160" width="120" height="80" as="geometry" />
        </mxCell>
        <mxCell id="TipFDsnjB_aHPclZi5g--2" value="" style="endArrow=none;html=1;rounded=0;exitX=0.5;exitY=1;exitDx=0;exitDy=0;" parent="1" edge="1" source="kFYqLt2y3ZUQdu_gal-k-8">
          <mxGeometry width="50" height="50" relative="1" as="geometry">
            <mxPoint x="349.5" y="-1070" as="sourcePoint" />
            <mxPoint x="349.5" y="-1050" as="targetPoint" />
          </mxGeometry>
        </mxCell>
        <mxCell id="VUvAiX2HDTpHdCh1CwL9-1" value="" style="endArrow=none;html=1;rounded=0;exitX=0.5;exitY=1;exitDx=0;exitDy=0;" parent="1" edge="1" source="TipFDsnjB_aHPclZi5g--1">
          <mxGeometry width="50" height="50" relative="1" as="geometry">
            <mxPoint x="614.36" y="-1079.9999999999998" as="sourcePoint" />
            <mxPoint x="629.5" y="-1050" as="targetPoint" />
            <Array as="points">
              <mxPoint x="629.5" y="-1060" />
            </Array>
          </mxGeometry>
        </mxCell>
        <mxCell id="VUvAiX2HDTpHdCh1CwL9-3" value="Raksta" style="rhombus;whiteSpace=wrap;html=1;" parent="1" vertex="1">
          <mxGeometry x="716" y="-645" width="110" height="50" as="geometry" />
        </mxCell>
        <mxCell id="VUvAiX2HDTpHdCh1CwL9-2" value="Uzdod" style="rhombus;whiteSpace=wrap;html=1;" parent="1" vertex="1">
          <mxGeometry x="424.5" y="-900" width="110" height="50" as="geometry" />
        </mxCell>
        <mxCell id="H1r55hv6cag2Kq7DpMwc-2" value="" style="endArrow=none;html=1;rounded=0;entryX=0.47;entryY=0.046;entryDx=0;entryDy=0;exitX=0.47;exitY=1.009;exitDx=0;exitDy=0;exitPerimeter=0;entryPerimeter=0;" parent="1" source="kFYqLt2y3ZUQdu_gal-k-109" target="H1r55hv6cag2Kq7DpMwc-1" edge="1">
          <mxGeometry width="50" height="50" relative="1" as="geometry">
            <mxPoint x="116" y="-789" as="sourcePoint" />
            <mxPoint x="116" y="-647" as="targetPoint" />
          </mxGeometry>
        </mxCell>
        <mxCell id="H1r55hv6cag2Kq7DpMwc-1" value="Ietver" style="rhombus;whiteSpace=wrap;html=1;" parent="1" vertex="1">
          <mxGeometry x="65" y="-745" width="110" height="50" as="geometry" />
        </mxCell>
        <mxCell id="H1r55hv6cag2Kq7DpMwc-3" value="Ietver" style="rhombus;whiteSpace=wrap;html=1;" parent="1" vertex="1">
          <mxGeometry x="606" y="-1015" width="110" height="50" as="geometry" />
        </mxCell>
        <mxCell id="H1r55hv6cag2Kq7DpMwc-5" value="" style="endArrow=none;html=1;rounded=0;entryX=0;entryY=0.5;entryDx=0;entryDy=0;" parent="1" source="kFYqLt2y3ZUQdu_gal-k-5" target="VUvAiX2HDTpHdCh1CwL9-3" edge="1">
          <mxGeometry width="50" height="50" relative="1" as="geometry">
            <mxPoint x="480" y="-654" as="sourcePoint" />
            <mxPoint x="480" y="-770" as="targetPoint" />
            <Array as="points" />
          </mxGeometry>
        </mxCell>
        <mxCell id="H1r55hv6cag2Kq7DpMwc-6" value="" style="endArrow=none;html=1;rounded=0;exitX=0.5;exitY=0;exitDx=0;exitDy=0;entryX=0.5;entryY=1;entryDx=0;entryDy=0;" parent="1" source="VUvAiX2HDTpHdCh1CwL9-3" target="kFYqLt2y3ZUQdu_gal-k-1" edge="1">
          <mxGeometry width="50" height="50" relative="1" as="geometry">
            <mxPoint x="345" y="-765.29" as="sourcePoint" />
            <mxPoint x="645" y="-765.29" as="targetPoint" />
            <Array as="points" />
          </mxGeometry>
        </mxCell>
        <mxCell id="lEW43MBzYcuYWHsb72Jf-1" value="Jautājumu&lt;br&gt;komentārs" style="rounded=0;whiteSpace=wrap;html=1;" vertex="1" parent="1">
          <mxGeometry x="940.5" y="140" width="120" height="60" as="geometry" />
        </mxCell>
        <mxCell id="lEW43MBzYcuYWHsb72Jf-2" value="Jautājums" style="rounded=0;whiteSpace=wrap;html=1;" vertex="1" parent="1">
          <mxGeometry x="940.5" y="340" width="120" height="60" as="geometry" />
        </mxCell>
        <mxCell id="lEW43MBzYcuYWHsb72Jf-3" value="Gramata/Fails" style="rounded=0;whiteSpace=wrap;html=1;" vertex="1" parent="1">
          <mxGeometry x="289.5" y="340" width="120" height="60" as="geometry" />
        </mxCell>
        <mxCell id="lEW43MBzYcuYWHsb72Jf-4" value="Lietotajs" style="rounded=0;whiteSpace=wrap;html=1;" vertex="1" parent="1">
          <mxGeometry x="649.5" y="340" width="120" height="60" as="geometry" />
        </mxCell>
        <mxCell id="lEW43MBzYcuYWHsb72Jf-5" value="Lietotājvards" style="ellipse;whiteSpace=wrap;html=1;" vertex="1" parent="1">
          <mxGeometry x="1160.5" y="130" width="120" height="80" as="geometry" />
        </mxCell>
        <mxCell id="lEW43MBzYcuYWHsb72Jf-6" value="" style="endArrow=none;html=1;rounded=0;exitX=1;exitY=0.5;exitDx=0;exitDy=0;" edge="1" parent="1" source="lEW43MBzYcuYWHsb72Jf-1">
          <mxGeometry width="50" height="50" relative="1" as="geometry">
            <mxPoint x="1040.5" y="310" as="sourcePoint" />
            <mxPoint x="1160.5" y="170" as="targetPoint" />
          </mxGeometry>
        </mxCell>
        <mxCell id="lEW43MBzYcuYWHsb72Jf-7" value="Lietotājvards" style="ellipse;whiteSpace=wrap;html=1;" vertex="1" parent="1">
          <mxGeometry x="1160.5" y="330" width="120" height="80" as="geometry" />
        </mxCell>
        <mxCell id="lEW43MBzYcuYWHsb72Jf-8" value="Nosaukums" style="ellipse;whiteSpace=wrap;html=1;" vertex="1" parent="1">
          <mxGeometry x="1160.5" y="430" width="120" height="80" as="geometry" />
        </mxCell>
        <mxCell id="lEW43MBzYcuYWHsb72Jf-9" value="" style="endArrow=none;html=1;rounded=0;exitX=1;exitY=0.5;exitDx=0;exitDy=0;entryX=0;entryY=0.5;entryDx=0;entryDy=0;" edge="1" parent="1" source="lEW43MBzYcuYWHsb72Jf-2">
          <mxGeometry width="50" height="50" relative="1" as="geometry">
            <mxPoint x="1040.5" y="510" as="sourcePoint" />
            <mxPoint x="1160.5" y="370" as="targetPoint" />
          </mxGeometry>
        </mxCell>
        <mxCell id="lEW43MBzYcuYWHsb72Jf-10" value="" style="endArrow=none;html=1;rounded=0;" edge="1" parent="1">
          <mxGeometry width="50" height="50" relative="1" as="geometry">
            <mxPoint x="1110.5" y="370" as="sourcePoint" />
            <mxPoint x="1110.5" y="570" as="targetPoint" />
          </mxGeometry>
        </mxCell>
        <mxCell id="lEW43MBzYcuYWHsb72Jf-11" value="" style="endArrow=none;html=1;rounded=0;" edge="1" parent="1" source="lEW43MBzYcuYWHsb72Jf-2" target="lEW43MBzYcuYWHsb72Jf-1">
          <mxGeometry width="50" height="50" relative="1" as="geometry">
            <mxPoint x="760.5" y="370" as="sourcePoint" />
            <mxPoint x="990.5" y="270" as="targetPoint" />
            <Array as="points">
              <mxPoint x="999.5" y="270" />
            </Array>
          </mxGeometry>
        </mxCell>
        <mxCell id="lEW43MBzYcuYWHsb72Jf-12" value="" style="endArrow=none;html=1;rounded=0;exitX=1;exitY=0.5;exitDx=0;exitDy=0;entryX=0.019;entryY=0.506;entryDx=0;entryDy=0;entryPerimeter=0;" edge="1" parent="1" source="lEW43MBzYcuYWHsb72Jf-63" target="lEW43MBzYcuYWHsb72Jf-2">
          <mxGeometry width="50" height="50" relative="1" as="geometry">
            <mxPoint x="929.5" y="290" as="sourcePoint" />
            <mxPoint x="1219.5" y="370" as="targetPoint" />
          </mxGeometry>
        </mxCell>
        <mxCell id="lEW43MBzYcuYWHsb72Jf-13" value="Vards" style="ellipse;whiteSpace=wrap;html=1;" vertex="1" parent="1">
          <mxGeometry x="769.5" y="440" width="120" height="80" as="geometry" />
        </mxCell>
        <mxCell id="lEW43MBzYcuYWHsb72Jf-14" value="e-pasts" style="ellipse;whiteSpace=wrap;html=1;" vertex="1" parent="1">
          <mxGeometry x="769.5" y="530" width="120" height="80" as="geometry" />
        </mxCell>
        <mxCell id="lEW43MBzYcuYWHsb72Jf-15" value="lietotājvārds&amp;nbsp;" style="ellipse;whiteSpace=wrap;html=1;" vertex="1" parent="1">
          <mxGeometry x="769.5" y="620" width="120" height="80" as="geometry" />
        </mxCell>
        <mxCell id="lEW43MBzYcuYWHsb72Jf-16" value="parole" style="ellipse;whiteSpace=wrap;html=1;" vertex="1" parent="1">
          <mxGeometry x="769.5" y="710" width="120" height="80" as="geometry" />
        </mxCell>
        <mxCell id="lEW43MBzYcuYWHsb72Jf-17" value="administrators" style="ellipse;whiteSpace=wrap;html=1;" vertex="1" parent="1">
          <mxGeometry x="769.5" y="800" width="120" height="80" as="geometry" />
        </mxCell>
        <mxCell id="lEW43MBzYcuYWHsb72Jf-18" value="skolotājs" style="ellipse;whiteSpace=wrap;html=1;" vertex="1" parent="1">
          <mxGeometry x="769.5" y="890" width="120" height="80" as="geometry" />
        </mxCell>
        <mxCell id="lEW43MBzYcuYWHsb72Jf-19" value="" style="endArrow=none;html=1;rounded=0;" edge="1" parent="1">
          <mxGeometry width="50" height="50" relative="1" as="geometry">
            <mxPoint x="709.5" y="930" as="sourcePoint" />
            <mxPoint x="709.5" y="400" as="targetPoint" />
          </mxGeometry>
        </mxCell>
        <mxCell id="lEW43MBzYcuYWHsb72Jf-20" value="" style="endArrow=none;html=1;rounded=0;entryX=0;entryY=0.5;entryDx=0;entryDy=0;" edge="1" parent="1">
          <mxGeometry width="50" height="50" relative="1" as="geometry">
            <mxPoint x="709.5" y="479.5" as="sourcePoint" />
            <mxPoint x="769.5" y="479.5" as="targetPoint" />
          </mxGeometry>
        </mxCell>
        <mxCell id="lEW43MBzYcuYWHsb72Jf-21" value="" style="endArrow=none;html=1;rounded=0;entryX=0;entryY=0.5;entryDx=0;entryDy=0;" edge="1" parent="1">
          <mxGeometry width="50" height="50" relative="1" as="geometry">
            <mxPoint x="709.5" y="569.5" as="sourcePoint" />
            <mxPoint x="769.5" y="569.5" as="targetPoint" />
          </mxGeometry>
        </mxCell>
        <mxCell id="lEW43MBzYcuYWHsb72Jf-22" value="" style="endArrow=none;html=1;rounded=0;entryX=0;entryY=0.5;entryDx=0;entryDy=0;" edge="1" parent="1">
          <mxGeometry width="50" height="50" relative="1" as="geometry">
            <mxPoint x="709.5" y="659.5" as="sourcePoint" />
            <mxPoint x="769.5" y="659.5" as="targetPoint" />
          </mxGeometry>
        </mxCell>
        <mxCell id="lEW43MBzYcuYWHsb72Jf-23" value="" style="endArrow=none;html=1;rounded=0;entryX=0;entryY=0.5;entryDx=0;entryDy=0;" edge="1" parent="1">
          <mxGeometry width="50" height="50" relative="1" as="geometry">
            <mxPoint x="709.5" y="749.5" as="sourcePoint" />
            <mxPoint x="769.5" y="749.5" as="targetPoint" />
          </mxGeometry>
        </mxCell>
        <mxCell id="lEW43MBzYcuYWHsb72Jf-24" value="" style="endArrow=none;html=1;rounded=0;entryX=0;entryY=0.5;entryDx=0;entryDy=0;" edge="1" parent="1">
          <mxGeometry width="50" height="50" relative="1" as="geometry">
            <mxPoint x="709.5" y="839.5" as="sourcePoint" />
            <mxPoint x="769.5" y="839.5" as="targetPoint" />
          </mxGeometry>
        </mxCell>
        <mxCell id="lEW43MBzYcuYWHsb72Jf-25" value="" style="endArrow=none;html=1;rounded=0;entryX=0;entryY=0.5;entryDx=0;entryDy=0;" edge="1" parent="1">
          <mxGeometry width="50" height="50" relative="1" as="geometry">
            <mxPoint x="709.5" y="929.5" as="sourcePoint" />
            <mxPoint x="769.5" y="929.5" as="targetPoint" />
          </mxGeometry>
        </mxCell>
        <mxCell id="lEW43MBzYcuYWHsb72Jf-26" value="Name" style="ellipse;whiteSpace=wrap;html=1;" vertex="1" parent="1">
          <mxGeometry x="409.5" y="440" width="120" height="80" as="geometry" />
        </mxCell>
        <mxCell id="lEW43MBzYcuYWHsb72Jf-27" value="Apraksts" style="ellipse;whiteSpace=wrap;html=1;" vertex="1" parent="1">
          <mxGeometry x="409.5" y="530" width="120" height="80" as="geometry" />
        </mxCell>
        <mxCell id="lEW43MBzYcuYWHsb72Jf-28" value="Faila nosaukums" style="ellipse;whiteSpace=wrap;html=1;" vertex="1" parent="1">
          <mxGeometry x="409.5" y="620" width="120" height="80" as="geometry" />
        </mxCell>
        <mxCell id="lEW43MBzYcuYWHsb72Jf-29" value="" style="endArrow=none;html=1;rounded=0;entryX=0.5;entryY=1;entryDx=0;entryDy=0;" edge="1" parent="1" target="lEW43MBzYcuYWHsb72Jf-3">
          <mxGeometry width="50" height="50" relative="1" as="geometry">
            <mxPoint x="349.5" y="660" as="sourcePoint" />
            <mxPoint x="349.5" y="400" as="targetPoint" />
          </mxGeometry>
        </mxCell>
        <mxCell id="lEW43MBzYcuYWHsb72Jf-30" value="" style="endArrow=none;html=1;rounded=0;entryX=0;entryY=0.5;entryDx=0;entryDy=0;" edge="1" parent="1">
          <mxGeometry width="50" height="50" relative="1" as="geometry">
            <mxPoint x="349.5" y="479.5" as="sourcePoint" />
            <mxPoint x="409.5" y="479.5" as="targetPoint" />
          </mxGeometry>
        </mxCell>
        <mxCell id="lEW43MBzYcuYWHsb72Jf-31" value="" style="endArrow=none;html=1;rounded=0;entryX=0;entryY=0.5;entryDx=0;entryDy=0;" edge="1" parent="1">
          <mxGeometry width="50" height="50" relative="1" as="geometry">
            <mxPoint x="349.5" y="569.5" as="sourcePoint" />
            <mxPoint x="409.5" y="569.5" as="targetPoint" />
          </mxGeometry>
        </mxCell>
        <mxCell id="lEW43MBzYcuYWHsb72Jf-32" value="" style="endArrow=none;html=1;rounded=0;entryX=0;entryY=0.5;entryDx=0;entryDy=0;" edge="1" parent="1">
          <mxGeometry width="50" height="50" relative="1" as="geometry">
            <mxPoint x="349.5" y="659.5" as="sourcePoint" />
            <mxPoint x="409.5" y="659.5" as="targetPoint" />
          </mxGeometry>
        </mxCell>
        <mxCell id="lEW43MBzYcuYWHsb72Jf-33" value="1" style="text;html=1;align=center;verticalAlign=middle;resizable=0;points=[];autosize=1;strokeColor=none;fillColor=none;" vertex="1" parent="1">
          <mxGeometry x="789.5" y="340" width="30" height="30" as="geometry" />
        </mxCell>
        <mxCell id="lEW43MBzYcuYWHsb72Jf-34" value="M" style="text;html=1;align=center;verticalAlign=middle;resizable=0;points=[];autosize=1;strokeColor=none;fillColor=none;" vertex="1" parent="1">
          <mxGeometry x="889.5" y="340" width="30" height="30" as="geometry" />
        </mxCell>
        <mxCell id="lEW43MBzYcuYWHsb72Jf-35" value="M" style="text;html=1;align=center;verticalAlign=middle;resizable=0;points=[];autosize=1;strokeColor=none;fillColor=none;" vertex="1" parent="1">
          <mxGeometry x="1000.5" y="210" width="30" height="30" as="geometry" />
        </mxCell>
        <mxCell id="lEW43MBzYcuYWHsb72Jf-36" value="1" style="text;html=1;align=center;verticalAlign=middle;resizable=0;points=[];autosize=1;strokeColor=none;fillColor=none;" vertex="1" parent="1">
          <mxGeometry x="1000.5" y="290" width="30" height="30" as="geometry" />
        </mxCell>
        <mxCell id="lEW43MBzYcuYWHsb72Jf-37" value="M" style="text;html=1;align=center;verticalAlign=middle;resizable=0;points=[];autosize=1;strokeColor=none;fillColor=none;" vertex="1" parent="1">
          <mxGeometry x="739.5" y="140" width="30" height="30" as="geometry" />
        </mxCell>
        <mxCell id="lEW43MBzYcuYWHsb72Jf-38" value="1" style="text;html=1;align=center;verticalAlign=middle;resizable=0;points=[];autosize=1;strokeColor=none;fillColor=none;" vertex="1" parent="1">
          <mxGeometry x="579.5" y="330" width="30" height="30" as="geometry" />
        </mxCell>
        <mxCell id="lEW43MBzYcuYWHsb72Jf-39" value="1" style="text;html=1;align=center;verticalAlign=middle;resizable=0;points=[];autosize=1;strokeColor=none;fillColor=none;" vertex="1" parent="1">
          <mxGeometry x="709.5" y="190" width="30" height="30" as="geometry" />
        </mxCell>
        <mxCell id="lEW43MBzYcuYWHsb72Jf-40" value="" style="endArrow=none;html=1;rounded=0;entryX=0;entryY=0.5;entryDx=0;entryDy=0;exitX=1;exitY=0.5;exitDx=0;exitDy=0;" edge="1" parent="1" source="lEW43MBzYcuYWHsb72Jf-41" target="lEW43MBzYcuYWHsb72Jf-4">
          <mxGeometry width="50" height="50" relative="1" as="geometry">
            <mxPoint x="579.5" y="370" as="sourcePoint" />
            <mxPoint x="769.5" y="360" as="targetPoint" />
          </mxGeometry>
        </mxCell>
        <mxCell id="lEW43MBzYcuYWHsb72Jf-41" value="Lejuplāde" style="rhombus;whiteSpace=wrap;html=1;" vertex="1" parent="1">
          <mxGeometry x="469.5" y="340" width="150" height="60" as="geometry" />
        </mxCell>
        <mxCell id="lEW43MBzYcuYWHsb72Jf-42" value="M" style="text;html=1;align=center;verticalAlign=middle;resizable=0;points=[];autosize=1;strokeColor=none;fillColor=none;" vertex="1" parent="1">
          <mxGeometry x="349.5" y="220" width="30" height="30" as="geometry" />
        </mxCell>
        <mxCell id="lEW43MBzYcuYWHsb72Jf-43" value="" style="endArrow=none;html=1;rounded=0;exitX=1;exitY=0.5;exitDx=0;exitDy=0;" edge="1" parent="1" source="lEW43MBzYcuYWHsb72Jf-3" target="lEW43MBzYcuYWHsb72Jf-41">
          <mxGeometry width="50" height="50" relative="1" as="geometry">
            <mxPoint x="569.5" y="429.04999999999995" as="sourcePoint" />
            <mxPoint x="469.5" y="370" as="targetPoint" />
          </mxGeometry>
        </mxCell>
        <mxCell id="lEW43MBzYcuYWHsb72Jf-44" value="Gramatas/Faila&lt;br&gt;komentārs" style="rounded=0;whiteSpace=wrap;html=1;" vertex="1" parent="1">
          <mxGeometry x="289.5" y="140" width="120" height="60" as="geometry" />
        </mxCell>
        <mxCell id="lEW43MBzYcuYWHsb72Jf-45" value="Teksts" style="ellipse;whiteSpace=wrap;html=1;" vertex="1" parent="1">
          <mxGeometry x="69.5" y="130" width="120" height="80" as="geometry" />
        </mxCell>
        <mxCell id="lEW43MBzYcuYWHsb72Jf-46" value="Novertējums" style="ellipse;whiteSpace=wrap;html=1;" vertex="1" parent="1">
          <mxGeometry x="69.5" y="220" width="120" height="80" as="geometry" />
        </mxCell>
        <mxCell id="lEW43MBzYcuYWHsb72Jf-47" value="" style="endArrow=none;html=1;rounded=0;entryX=0;entryY=0.5;entryDx=0;entryDy=0;" edge="1" parent="1" target="lEW43MBzYcuYWHsb72Jf-44">
          <mxGeometry width="50" height="50" relative="1" as="geometry">
            <mxPoint x="249.5" y="260" as="sourcePoint" />
            <mxPoint x="349.5" y="200" as="targetPoint" />
            <Array as="points">
              <mxPoint x="249.5" y="170" />
            </Array>
          </mxGeometry>
        </mxCell>
        <mxCell id="lEW43MBzYcuYWHsb72Jf-48" value="" style="endArrow=none;html=1;rounded=0;" edge="1" parent="1">
          <mxGeometry width="50" height="50" relative="1" as="geometry">
            <mxPoint x="189.5" y="170" as="sourcePoint" />
            <mxPoint x="249.5" y="170" as="targetPoint" />
          </mxGeometry>
        </mxCell>
        <mxCell id="lEW43MBzYcuYWHsb72Jf-49" value="" style="endArrow=none;html=1;rounded=0;entryX=1;entryY=0.5;entryDx=0;entryDy=0;" edge="1" parent="1" target="lEW43MBzYcuYWHsb72Jf-46">
          <mxGeometry width="50" height="50" relative="1" as="geometry">
            <mxPoint x="249.5" y="260" as="sourcePoint" />
            <mxPoint x="219.5" y="410" as="targetPoint" />
          </mxGeometry>
        </mxCell>
        <mxCell id="lEW43MBzYcuYWHsb72Jf-50" value="" style="endArrow=none;html=1;rounded=0;exitX=1;exitY=0.5;exitDx=0;exitDy=0;" edge="1" parent="1" source="lEW43MBzYcuYWHsb72Jf-44">
          <mxGeometry width="50" height="50" relative="1" as="geometry">
            <mxPoint x="469.5" y="160" as="sourcePoint" />
            <mxPoint x="709.5" y="170" as="targetPoint" />
            <Array as="points">
              <mxPoint x="649.5" y="170" />
            </Array>
          </mxGeometry>
        </mxCell>
        <mxCell id="lEW43MBzYcuYWHsb72Jf-51" value="1" style="text;html=1;align=center;verticalAlign=middle;resizable=0;points=[];autosize=1;strokeColor=none;fillColor=none;" vertex="1" parent="1">
          <mxGeometry x="349.5" y="295" width="30" height="30" as="geometry" />
        </mxCell>
        <mxCell id="lEW43MBzYcuYWHsb72Jf-52" value="" style="endArrow=none;html=1;rounded=0;entryX=0.47;entryY=0.046;entryDx=0;entryDy=0;exitX=0.47;exitY=1.009;exitDx=0;exitDy=0;exitPerimeter=0;entryPerimeter=0;" edge="1" parent="1" source="lEW43MBzYcuYWHsb72Jf-65" target="lEW43MBzYcuYWHsb72Jf-3">
          <mxGeometry width="50" height="50" relative="1" as="geometry">
            <mxPoint x="389.5" y="280" as="sourcePoint" />
            <mxPoint x="444.5" y="280" as="targetPoint" />
          </mxGeometry>
        </mxCell>
        <mxCell id="lEW43MBzYcuYWHsb72Jf-53" value="M" style="text;html=1;align=center;verticalAlign=middle;resizable=0;points=[];autosize=1;strokeColor=none;fillColor=none;" vertex="1" parent="1">
          <mxGeometry x="479.5" y="330" width="30" height="30" as="geometry" />
        </mxCell>
        <mxCell id="lEW43MBzYcuYWHsb72Jf-54" value="M" style="text;html=1;align=center;verticalAlign=middle;resizable=0;points=[];autosize=1;strokeColor=none;fillColor=none;" vertex="1" parent="1">
          <mxGeometry x="639.5" y="140" width="30" height="30" as="geometry" />
        </mxCell>
        <mxCell id="lEW43MBzYcuYWHsb72Jf-55" value="Teksts" style="ellipse;whiteSpace=wrap;html=1;" vertex="1" parent="1">
          <mxGeometry x="1160.5" y="530" width="120" height="80" as="geometry" />
        </mxCell>
        <mxCell id="lEW43MBzYcuYWHsb72Jf-56" value="" style="endArrow=none;html=1;rounded=0;entryX=0;entryY=0.5;entryDx=0;entryDy=0;" edge="1" parent="1">
          <mxGeometry width="50" height="50" relative="1" as="geometry">
            <mxPoint x="1110.5" y="569.83" as="sourcePoint" />
            <mxPoint x="1160.5" y="569.83" as="targetPoint" />
          </mxGeometry>
        </mxCell>
        <mxCell id="lEW43MBzYcuYWHsb72Jf-57" value="Teksts" style="ellipse;whiteSpace=wrap;html=1;" vertex="1" parent="1">
          <mxGeometry x="1160.5" y="230" width="120" height="80" as="geometry" />
        </mxCell>
        <mxCell id="lEW43MBzYcuYWHsb72Jf-58" value="" style="endArrow=none;html=1;rounded=0;" edge="1" parent="1">
          <mxGeometry width="50" height="50" relative="1" as="geometry">
            <mxPoint x="1130.5" y="170" as="sourcePoint" />
            <mxPoint x="1130.5" y="270" as="targetPoint" />
          </mxGeometry>
        </mxCell>
        <mxCell id="lEW43MBzYcuYWHsb72Jf-59" value="" style="endArrow=none;html=1;rounded=0;entryX=0;entryY=0.5;entryDx=0;entryDy=0;" edge="1" parent="1" target="lEW43MBzYcuYWHsb72Jf-57">
          <mxGeometry width="50" height="50" relative="1" as="geometry">
            <mxPoint x="1130.5" y="270" as="sourcePoint" />
            <mxPoint x="1160.5" y="309" as="targetPoint" />
          </mxGeometry>
        </mxCell>
        <mxCell id="lEW43MBzYcuYWHsb72Jf-60" value="" style="endArrow=none;html=1;rounded=0;entryX=0;entryY=0.5;entryDx=0;entryDy=0;" edge="1" parent="1">
          <mxGeometry width="50" height="50" relative="1" as="geometry">
            <mxPoint x="1110.5" y="469.83000000000004" as="sourcePoint" />
            <mxPoint x="1160.5" y="469.83000000000004" as="targetPoint" />
          </mxGeometry>
        </mxCell>
        <mxCell id="lEW43MBzYcuYWHsb72Jf-61" value="Raksta" style="rhombus;whiteSpace=wrap;html=1;" vertex="1" parent="1">
          <mxGeometry x="654.5" y="145" width="110" height="50" as="geometry" />
        </mxCell>
        <mxCell id="lEW43MBzYcuYWHsb72Jf-62" value="" style="endArrow=none;html=1;rounded=0;exitX=1;exitY=0.5;exitDx=0;exitDy=0;entryX=0;entryY=0.5;entryDx=0;entryDy=0;" edge="1" parent="1" source="lEW43MBzYcuYWHsb72Jf-4" target="lEW43MBzYcuYWHsb72Jf-63">
          <mxGeometry width="50" height="50" relative="1" as="geometry">
            <mxPoint x="769.5" y="370" as="sourcePoint" />
            <mxPoint x="940.5" y="370" as="targetPoint" />
          </mxGeometry>
        </mxCell>
        <mxCell id="lEW43MBzYcuYWHsb72Jf-63" value="Uzdod" style="rhombus;whiteSpace=wrap;html=1;" vertex="1" parent="1">
          <mxGeometry x="799.5" y="345" width="110" height="50" as="geometry" />
        </mxCell>
        <mxCell id="lEW43MBzYcuYWHsb72Jf-64" value="" style="endArrow=none;html=1;rounded=0;entryX=0.47;entryY=0.046;entryDx=0;entryDy=0;exitX=0.47;exitY=1.009;exitDx=0;exitDy=0;exitPerimeter=0;entryPerimeter=0;" edge="1" parent="1" source="lEW43MBzYcuYWHsb72Jf-44" target="lEW43MBzYcuYWHsb72Jf-65">
          <mxGeometry width="50" height="50" relative="1" as="geometry">
            <mxPoint x="345.5" y="201" as="sourcePoint" />
            <mxPoint x="345.5" y="343" as="targetPoint" />
          </mxGeometry>
        </mxCell>
        <mxCell id="lEW43MBzYcuYWHsb72Jf-65" value="Ietver" style="rhombus;whiteSpace=wrap;html=1;" vertex="1" parent="1">
          <mxGeometry x="294.5" y="245" width="110" height="50" as="geometry" />
        </mxCell>
        <mxCell id="lEW43MBzYcuYWHsb72Jf-66" value="Ietver" style="rhombus;whiteSpace=wrap;html=1;" vertex="1" parent="1">
          <mxGeometry x="945.5" y="240" width="110" height="50" as="geometry" />
        </mxCell>
        <mxCell id="lEW43MBzYcuYWHsb72Jf-67" value="" style="endArrow=none;html=1;rounded=0;exitX=0.5;exitY=-0.067;exitDx=0;exitDy=0;exitPerimeter=0;entryX=0.5;entryY=1;entryDx=0;entryDy=0;" edge="1" parent="1" source="lEW43MBzYcuYWHsb72Jf-4" target="lEW43MBzYcuYWHsb72Jf-61">
          <mxGeometry width="50" height="50" relative="1" as="geometry">
            <mxPoint x="679.5" y="234.71000000000004" as="sourcePoint" />
            <mxPoint x="709.5" y="220" as="targetPoint" />
            <Array as="points" />
          </mxGeometry>
        </mxCell>
        <mxCell id="lEW43MBzYcuYWHsb72Jf-68" value="" style="endArrow=none;html=1;rounded=0;exitX=1;exitY=0.5;exitDx=0;exitDy=0;entryX=0;entryY=0.5;entryDx=0;entryDy=0;" edge="1" parent="1" source="lEW43MBzYcuYWHsb72Jf-61" target="lEW43MBzYcuYWHsb72Jf-1">
          <mxGeometry width="50" height="50" relative="1" as="geometry">
            <mxPoint x="574.5" y="224.71000000000004" as="sourcePoint" />
            <mxPoint x="874.5" y="224.71000000000004" as="targetPoint" />
            <Array as="points" />
          </mxGeometry>
        </mxCell>
        <mxCell id="lEW43MBzYcuYWHsb72Jf-81" value="Faila nosaukums" style="ellipse;whiteSpace=wrap;html=1;" vertex="1" parent="1">
          <mxGeometry x="-180" y="-540" width="120" height="80" as="geometry" />
        </mxCell>
        <mxCell id="lEW43MBzYcuYWHsb72Jf-83" value="" style="endArrow=none;html=1;rounded=0;entryX=0;entryY=0.5;entryDx=0;entryDy=0;" edge="1" parent="1">
          <mxGeometry width="50" height="50" relative="1" as="geometry">
            <mxPoint x="120" y="-240.29000000000002" as="sourcePoint" />
            <mxPoint x="180" y="-240.29000000000002" as="targetPoint" />
          </mxGeometry>
        </mxCell>
        <mxCell id="lEW43MBzYcuYWHsb72Jf-85" value="Ietver" style="rhombus;whiteSpace=wrap;html=1;" vertex="1" parent="1">
          <mxGeometry x="65" y="-1015" width="110" height="50" as="geometry" />
        </mxCell>
        <mxCell id="lEW43MBzYcuYWHsb72Jf-86" value="M" style="text;html=1;align=center;verticalAlign=middle;resizable=0;points=[];autosize=1;strokeColor=none;fillColor=none;" vertex="1" parent="1">
          <mxGeometry x="120" y="-700" width="30" height="30" as="geometry" />
        </mxCell>
        <mxCell id="lEW43MBzYcuYWHsb72Jf-88" value="M" style="text;html=1;align=center;verticalAlign=middle;resizable=0;points=[];autosize=1;strokeColor=none;fillColor=none;" vertex="1" parent="1">
          <mxGeometry x="120" y="-965" width="30" height="30" as="geometry" />
        </mxCell>
        <mxCell id="lEW43MBzYcuYWHsb72Jf-89" value="" style="endArrow=none;html=1;rounded=0;entryX=0.5;entryY=0;entryDx=0;entryDy=0;exitX=0.5;exitY=1;exitDx=0;exitDy=0;" edge="1" parent="1" source="lEW43MBzYcuYWHsb72Jf-85" target="kFYqLt2y3ZUQdu_gal-k-109">
          <mxGeometry width="50" height="50" relative="1" as="geometry">
            <mxPoint x="119" y="-950" as="sourcePoint" />
            <mxPoint x="120" y="-904" as="targetPoint" />
          </mxGeometry>
        </mxCell>
        <mxCell id="lEW43MBzYcuYWHsb72Jf-90" value="" style="endArrow=none;html=1;rounded=0;entryX=0;entryY=0.5;entryDx=0;entryDy=0;" edge="1" parent="1" source="lEW43MBzYcuYWHsb72Jf-85" target="kFYqLt2y3ZUQdu_gal-k-2">
          <mxGeometry width="50" height="50" relative="1" as="geometry">
            <mxPoint x="309.5" y="-990" as="sourcePoint" />
            <mxPoint x="369.5" y="-845" as="targetPoint" />
          </mxGeometry>
        </mxCell>
        <mxCell id="lEW43MBzYcuYWHsb72Jf-93" value="" style="endArrow=none;html=1;rounded=0;exitX=0;exitY=0.5;exitDx=0;exitDy=0;entryX=1;entryY=0.5;entryDx=0;entryDy=0;" edge="1" parent="1" source="H1r55hv6cag2Kq7DpMwc-3" target="kFYqLt2y3ZUQdu_gal-k-2">
          <mxGeometry width="50" height="50" relative="1" as="geometry">
            <mxPoint x="535" y="-910" as="sourcePoint" />
            <mxPoint x="535" y="-970" as="targetPoint" />
          </mxGeometry>
        </mxCell>
        <mxCell id="lEW43MBzYcuYWHsb72Jf-94" value="M" style="text;html=1;align=center;verticalAlign=middle;resizable=0;points=[];autosize=1;strokeColor=none;fillColor=none;" vertex="1" parent="1">
          <mxGeometry x="709.5" y="-1020" width="30" height="30" as="geometry" />
        </mxCell>
        <mxCell id="lEW43MBzYcuYWHsb72Jf-95" value="1" style="text;html=1;align=center;verticalAlign=middle;resizable=0;points=[];autosize=1;strokeColor=none;fillColor=none;" vertex="1" parent="1">
          <mxGeometry x="589.5" y="-1020" width="30" height="30" as="geometry" />
        </mxCell>
        <mxCell id="lEW43MBzYcuYWHsb72Jf-96" value="" style="endArrow=none;html=1;rounded=0;exitX=0.5;exitY=0;exitDx=0;exitDy=0;entryX=0.5;entryY=1;entryDx=0;entryDy=0;" edge="1" parent="1" source="kFYqLt2y3ZUQdu_gal-k-5" target="VUvAiX2HDTpHdCh1CwL9-2">
          <mxGeometry width="50" height="50" relative="1" as="geometry">
            <mxPoint x="469.5" y="-700" as="sourcePoint" />
            <mxPoint x="469.5" y="-760" as="targetPoint" />
          </mxGeometry>
        </mxCell>
        <mxCell id="lEW43MBzYcuYWHsb72Jf-98" value="Gaidamie lietotāju&amp;nbsp;" style="rounded=0;whiteSpace=wrap;html=1;" vertex="1" parent="1">
          <mxGeometry x="240" y="-900" width="120" height="60" as="geometry" />
        </mxCell>
        <mxCell id="lEW43MBzYcuYWHsb72Jf-99" value="e-pasts" style="ellipse;whiteSpace=wrap;html=1;" vertex="1" parent="1">
          <mxGeometry x="260" y="-790" width="80" height="40" as="geometry" />
        </mxCell>
        <mxCell id="lEW43MBzYcuYWHsb72Jf-100" value="token" style="ellipse;whiteSpace=wrap;html=1;" vertex="1" parent="1">
          <mxGeometry x="349.5" y="-790" width="80" height="40" as="geometry" />
        </mxCell>
        <mxCell id="lEW43MBzYcuYWHsb72Jf-101" value="" style="endArrow=none;html=1;rounded=0;entryX=0.5;entryY=0;entryDx=0;entryDy=0;exitX=0.5;exitY=1;exitDx=0;exitDy=0;" edge="1" parent="1" source="lEW43MBzYcuYWHsb72Jf-98" target="lEW43MBzYcuYWHsb72Jf-99">
          <mxGeometry width="50" height="50" relative="1" as="geometry">
            <mxPoint x="240" y="-810" as="sourcePoint" />
            <mxPoint x="241" y="-764" as="targetPoint" />
          </mxGeometry>
        </mxCell>
        <mxCell id="lEW43MBzYcuYWHsb72Jf-102" value="" style="endArrow=none;html=1;rounded=0;" edge="1" parent="1">
          <mxGeometry width="50" height="50" relative="1" as="geometry">
            <mxPoint x="300" y="-820" as="sourcePoint" />
            <mxPoint x="390" y="-820" as="targetPoint" />
          </mxGeometry>
        </mxCell>
        <mxCell id="lEW43MBzYcuYWHsb72Jf-103" value="" style="endArrow=none;html=1;rounded=0;entryX=0.5;entryY=0;entryDx=0;entryDy=0;" edge="1" parent="1" target="lEW43MBzYcuYWHsb72Jf-100">
          <mxGeometry width="50" height="50" relative="1" as="geometry">
            <mxPoint x="390" y="-820" as="sourcePoint" />
            <mxPoint x="349.31" y="-745" as="targetPoint" />
          </mxGeometry>
        </mxCell>
        <mxCell id="lEW43MBzYcuYWHsb72Jf-104" value="" style="endArrow=none;html=1;rounded=0;entryX=0.5;entryY=0;entryDx=0;entryDy=0;" edge="1" parent="1">
          <mxGeometry width="50" height="50" relative="1" as="geometry">
            <mxPoint x="719.83" y="-560" as="sourcePoint" />
            <mxPoint x="719.85" y="-540" as="targetPoint" />
          </mxGeometry>
        </mxCell>
        <mxCell id="lEW43MBzYcuYWHsb72Jf-105" value="" style="endArrow=none;html=1;rounded=0;entryX=0.5;entryY=0;entryDx=0;entryDy=0;" edge="1" parent="1">
          <mxGeometry width="50" height="50" relative="1" as="geometry">
            <mxPoint x="854.33" y="-560" as="sourcePoint" />
            <mxPoint x="854.35" y="-540" as="targetPoint" />
          </mxGeometry>
        </mxCell>
        <mxCell id="lEW43MBzYcuYWHsb72Jf-106" value="" style="endArrow=none;html=1;rounded=0;entryX=0.5;entryY=0;entryDx=0;entryDy=0;" edge="1" parent="1">
          <mxGeometry width="50" height="50" relative="1" as="geometry">
            <mxPoint x="970.33" y="-560" as="sourcePoint" />
            <mxPoint x="970.35" y="-540" as="targetPoint" />
          </mxGeometry>
        </mxCell>
        <mxCell id="lEW43MBzYcuYWHsb72Jf-107" value="" style="endArrow=none;html=1;rounded=0;entryX=0.5;entryY=0;entryDx=0;entryDy=0;" edge="1" parent="1">
          <mxGeometry width="50" height="50" relative="1" as="geometry">
            <mxPoint x="1090.33" y="-560" as="sourcePoint" />
            <mxPoint x="1090.35" y="-540" as="targetPoint" />
          </mxGeometry>
        </mxCell>
        <mxCell id="lEW43MBzYcuYWHsb72Jf-108" value="Aktīvs" style="ellipse;whiteSpace=wrap;html=1;" vertex="1" parent="1">
          <mxGeometry x="300" y="-540" width="120" height="80" as="geometry" />
        </mxCell>
        <mxCell id="lEW43MBzYcuYWHsb72Jf-111" value="" style="endArrow=none;html=1;rounded=0;entryX=0.5;entryY=0;entryDx=0;entryDy=0;" edge="1" parent="1">
          <mxGeometry width="50" height="50" relative="1" as="geometry">
            <mxPoint x="360" y="-560" as="sourcePoint" />
            <mxPoint x="360" y="-540" as="targetPoint" />
          </mxGeometry>
        </mxCell>
        <mxCell id="lEW43MBzYcuYWHsb72Jf-112" value="" style="endArrow=none;html=1;rounded=0;entryX=0.5;entryY=0;entryDx=0;entryDy=0;" edge="1" parent="1">
          <mxGeometry width="50" height="50" relative="1" as="geometry">
            <mxPoint x="-120.19999999999999" y="-560" as="sourcePoint" />
            <mxPoint x="-120.19999999999999" y="-540" as="targetPoint" />
          </mxGeometry>
        </mxCell>
        <mxCell id="lEW43MBzYcuYWHsb72Jf-113" value="" style="endArrow=none;html=1;rounded=0;entryX=0.5;entryY=0;entryDx=0;entryDy=0;" edge="1" parent="1">
          <mxGeometry width="50" height="50" relative="1" as="geometry">
            <mxPoint x="240" y="-560" as="sourcePoint" />
            <mxPoint x="240" y="-540" as="targetPoint" />
          </mxGeometry>
        </mxCell>
      </root>
    </mxGraphModel>
  </diagram>
</mxfile>
